<svg viewBox="0 0 300 300" xmlns="http://www.w3.org/2000/svg">
  <defs>
    <linearGradient id="professionalGrad" x1="0%" y1="0%" x2="100%" y2="100%">
      <stop offset="0%" style="stop-color:#a855f7;stop-opacity:1" />
      <stop offset="100%" style="stop-color:#7c3aed;stop-opacity:1" />
    </linearGradient>
  </defs>
  
  <!-- Background -->
  <rect width="300" height="300" fill="#0f172a" rx="12"/>
  <rect width="300" height="300" fill="url(#professionalGrad)" opacity="0.1" rx="12"/>
  
  <!-- Multi-layer shield -->
  <g transform="translate(75, 40)">
    <path d="M 75 20 L 135 15 L 135 85 Q 135 120 75 145 Q 15 120 15 85 L 15 15 Z" 
          fill="none" stroke="#a855f7" stroke-width="2.5"/>
    <path d="M 80 35 L 130 30 L 130 80 Q 130 110 75 135 Q 20 110 20 80 L 20 30 Z" 
          fill="#a855f7" opacity="0.15" stroke="#a855f7" stroke-width="1.5"/>
    <circle cx="75" cy="75" r="20" fill="#a855f7" opacity="0.3"/>
    <path d="M 68 75 L 73 80 L 85 68" stroke="#a855f7" stroke-width="2.5" fill="none" stroke-linecap="round" stroke-linejoin="round"/>
  </g>
  
  <!-- Title -->
  <text x="150" y="200" font-size="20" font-weight="bold" fill="#fff" text-anchor="middle" font-family="sans-serif">
    Professional
  </text>
  
  <!-- Features list -->
  <g transform="translate(30, 220)">
    <circle cx="0" cy="0" r="3" fill="#a855f7"/>
    <text x="10" y="4" font-size="12" fill="#cbd5e1" font-family="sans-serif">24/7 SOC monitoring</text>
    
    <circle cx="0" cy="20" r="3" fill="#a855f7"/>
    <text x="10" y="24" font-size="12" fill="#cbd5e1" font-family="sans-serif">Incident response team</text>
    
    <circle cx="0" cy="40" r="3" fill="#a855f7"/>
    <text x="10" y="44" font-size="12" fill="#cbd5e1" font-family="sans-serif">SIEM + threat hunt</text>
  </g>
</svg>
